<svg width="25" height="24" viewBox="0 0 25 24" fill="none" xmlns="http://www.w3.org/2000/svg">
<path fill-rule="evenodd" clip-rule="evenodd" d="M18.5 21H6.5C4.843 21 3.5 19.657 3.5 18V6C3.5 4.343 4.843 3 6.5 3H18.5C20.157 3 21.5 4.343 21.5 6V18C21.5 19.657 20.157 21 18.5 21Z" stroke="#D73035" stroke-width="1.5" stroke-linecap="round" stroke-linejoin="round"/>
<path d="M3.5 17.4859L8.112 12.8739C8.503 12.4829 9.136 12.4829 9.526 12.8739L10.932 14.2799L15.509 9.70389C15.9 9.31289 16.533 9.31289 16.923 9.70389L21.5 14.2809" stroke="#D73035" stroke-width="1.5" stroke-linecap="round" stroke-linejoin="round"/>
<path d="M9.01517 7.40671C9.16161 7.55316 9.16161 7.79059 9.01517 7.93704C8.86872 8.08349 8.63128 8.08349 8.48483 7.93704C8.33839 7.79059 8.33839 7.55316 8.48483 7.40671C8.63128 7.26026 8.86872 7.26026 9.01517 7.40671" stroke="#D73035" stroke-width="1.5" stroke-linecap="round" stroke-linejoin="round"/>
</svg>
